inDegrees=no
num_controls=7
num_derivatives=13
num_iterations=121
num_multipliers=7
num_parameters=0
num_slacks=7
num_states=26
objective=5.856599
objective_accelerations=0.629343
objective_balance=0.012689
objective_effort=0.475860
objective_height=4.615646
objective_ligament=0.123061
solver_duration=1041.866868
status=Solve_Succeeded
success=true
DataType=double
version=3
OpenSimVersion=4.4-2022-07-23-0e9fedc
endheader
time	/jointset/ground_pelvis/pelvis_tilt/value	/jointset/ground_pelvis/pelvis_tx/value	/jointset/ground_pelvis/pelvis_ty/value	/jointset/hip_r/hip_flexion_r/value	/jointset/hip_r/hip_adduction_r/value	/jointset/hip_r/hip_rotation_r/value	/jointset/back/lumbar_extension/value	/jointset/patellofemoral_r/patellar_flexion_r/value	/jointset/knee_r/knee_flexion_r/value	/jointset/knee_r/knee_adduction_r/value	/jointset/knee_r/knee_rotation_r/value	/jointset/ankle_r/ankle_angle_r/value	/jointset/subtalar_r/subtalar_angle_r/value	/jointset/ground_pelvis/pelvis_tilt/speed	/jointset/ground_pelvis/pelvis_tx/speed	/jointset/ground_pelvis/pelvis_ty/speed	/jointset/hip_r/hip_flexion_r/speed	/jointset/hip_r/hip_adduction_r/speed	/jointset/hip_r/hip_rotation_r/speed	/jointset/back/lumbar_extension/speed	/jointset/patellofemoral_r/patellar_flexion_r/speed	/jointset/knee_r/knee_flexion_r/speed	/jointset/knee_r/knee_adduction_r/speed	/jointset/knee_r/knee_rotation_r/speed	/jointset/ankle_r/ankle_angle_r/speed	/jointset/subtalar_r/subtalar_angle_r/speed	/forceset/tau_hip_flexion_r	/forceset/tau_hip_adduction_r	/forceset/tau_hip_rotation_r	/forceset/tau_knee_flexion_r	/forceset/tau_ankle_angle_r	/forceset/tau_subtalar_angle_r	/forceset/tau_lumbar_extension	lambda_cid13_p0	lambda_cid14_p0	lambda_cid14_p1	lambda_cid14_p2	lambda_cid14_p3	lambda_cid14_p4	lambda_cid14_p5	/jointset/ground_pelvis/pelvis_tilt/accel	/jointset/ground_pelvis/pelvis_tx/accel	/jointset/ground_pelvis/pelvis_ty/accel	/jointset/hip_r/hip_flexion_r/accel	/jointset/hip_r/hip_adduction_r/accel	/jointset/hip_r/hip_rotation_r/accel	/jointset/back/lumbar_extension/accel	/jointset/patellofemoral_r/patellar_flexion_r/accel	/jointset/knee_r/knee_flexion_r/accel	/jointset/knee_r/knee_adduction_r/accel	/jointset/knee_r/knee_rotation_r/accel	/jointset/ankle_r/ankle_angle_r/accel	/jointset/subtalar_r/subtalar_angle_r/accel	gamma_cid13_p0	gamma_cid14_p0	gamma_cid14_p1	gamma_cid14_p2	gamma_cid14_p3	gamma_cid14_p4	gamma_cid14_p5
1	-0.2449584211538061	-0.01013325060208503	0.6310387054493828	1.445089669773346	-0.2523389746297801	0.1281798407542803	-0.785392553184318	1.535951383467532	1.535951383467454	0.05896653640410485	0.1745137422202464	0.4362203027490676	0.1439501614599523	0.07387284011417801	0.006046521309704734	0.01447540303025873	-0.1029778481827911	-0.002236190060955511	-0.003798554043601945	-0.000346934783993866	-0.01249197899853424	-0.01249197899853717	0.002197648673247	-4.092699015485822e-07	0.01657374117392933	0.003526713993261107	-0.3415523341947163	0.007018122851947662	0.05476895035030568	-0.4713067485499292	-0.02801151851100167	-0.01290540881624876	0.3620182220549077	-0.03963738891843845	-61.64875675227631	-18.19092530244001	5.368794613310452	9.075942668412466	-770.0712919068197	79.61753280004712	1.329982640725969	0.1358800263157933	1.829970941409376	-5.500798552053356	-0.1519904271154654	-1.749964753381436	-0.03956590798338783	-5.066048470815792	-5.066048470815741	0.01786062572272673	0.006781165164757758	-1.140931485451783	-0.7686418775287451	4.592314947574382e-10	-1.494582738194911e-09	-7.705569908922291e-09	2.411951120538985e-09	3.31797963078342e-09	-6.253541886395411e-09	-1.445707134858585e-08
1.01	-0.2441540049417449	-0.01006589346704794	0.6312748513525289	1.443785669059285	-0.2523687219112875	0.1280541375040802	-0.7853961898028204	1.535573252287612	1.535573252287646	0.05898883757476345	0.1745136078639949	0.4363291585295032	0.1439474705650719	0.08699551354047688	0.007437991724865952	0.03275603178833643	-0.1578302450437271	-0.003709652387109813	-0.0213372055979478	-0.0002756042366958356	-0.0631453157181724	-0.06314531571817439	0.002265228482837322	-3.465815989905596e-05	0.005209904794907752	-0.004052283328718745	-0.3419164729275271	0.007076467404787791	0.05477556995176847	-0.4714268916063777	-0.02814290237300664	-0.01287981533977303	0.3626594760324779	-0.0396393697244379	-61.71419017359814	-18.19107060593837	5.368593348169988	8.945850497806429	-770.5609887306038	79.64105907322352	1.301176448032238	0.1427449318626453	1.827444796155271	-5.478653048518455	-0.1444820509056582	-1.755083032384761	0.04620034925716814	-5.066634944558112	-5.066634944557333	0.001603962286430303	-0.009759555390604481	-1.132236387972962	-0.7506391813134591	-6.784737420920125e-10	-3.464139506512762e-09	-8.351543746874313e-09	-5.998317381068324e-09	7.35745833208789e-09	-1.082930433096562e-08	-2.344949529097434e-08
1.02	-0.2432188086445326	-0.009984228751307271	0.6316938707338862	1.441932905817799	-0.2524130953991197	0.1277531942031399	-0.7853959695601839	1.534688256006091	1.534688256006068	0.05901189400455632	0.1745128846910163	0.4363247506126327	0.1438693675926222	0.1000288571448611	0.00890803745041838	0.05105009867240779	-0.2127303537207753	-0.005161431334929318	-0.03884656418922385	0.0004244388374145667	-0.1138649993186299	-0.1138649993186314	0.002348700440758212	-0.0001181726222315488	-0.006078998537956923	-0.01155570152194482	-0.3422806116590816	0.007134811957845463	0.05478218955244221	-0.4715470346628416	-0.02827428623516502	-0.01285422186294168	0.3633007300112099	-0.0396456336094001	-61.7869570207568	-18.19083801629621	5.366433783910741	8.826152539217528	-771.1856518685316	79.65318423053655	1.312116676343354	0.1515950883936925	1.832658566608059	-5.510340915275623	-0.1476537514484219	-1.744106160767451	0.08617659738143221	-5.079317846979695	-5.079317846979744	0.02103905538880137	-0.003071949302287871	-1.125944876221035	-0.7535260517781391	-2.482141121771612e-09	-3.903077689652252e-09	-6.064410905000938e-09	-1.575686826312629e-08	7.129892605890281e-09	-1.346949388002287e-08	-3.141183040378608e-08
1.03	-0.2421540700542667	-0.009887453046527071	0.6322957644608238	1.439531476625906	-0.2524718496164836	0.1272773708196483	-0.7853847940834181	1.53329588300719	1.533295883007199	0.05903584263568113	0.1745111155313063	0.4362077594167194	0.1437166536921478	0.1128683564072611	0.01046207348307968	0.06931745547043906	-0.2675050066467197	-0.006583527957171267	-0.05630650277257818	0.001998309709163827	-0.1646055915802207	-0.1646055915802221	0.002442447884684026	-0.0002389122559619056	-0.01731382321275231	-0.01897122421878835	-0.3428053222565966	0.007273851522762077	0.05474632692641636	-0.4710609338192351	-0.02881440941722323	-0.01278598970587815	0.3641493816430858	-0.0396630859615348	-61.97065906487086	-18.18108740379096	5.350849817985444	8.76306346548742	-771.5901880614564	79.58823704248891	1.26229075795292	0.1595547284402007	1.822092315851176	-5.453456289845894	-0.1386074135229177	-1.745201134626183	0.2211403097601364	-5.070827713285189	-5.07082771328476	0.003759676845578108	-0.01706931836555669	-1.121438828226823	-0.7331908227922909	-4.292604033520911e-09	-4.326397315800118e-09	-3.747348403129328e-09	-2.552917712865825e-08	6.858785610024259e-09	-1.608993268524835e-08	-3.936365440609193e-08
1.04	-0.2409624516300281	-0.009774687607870621	0.6330799953716322	1.436583815143067	-0.252544648759235	0.1266272953648533	-0.7853522503025663	1.531396224526166	1.53139622452619	0.05906077215906689	0.1745080401057226	0.4359785824607946	0.1434902594758802	0.1254048239402479	0.01210598422566773	0.08751753544650415	-0.3219768119163322	-0.007970416415926841	-0.07369697845618842	0.004698099688415813	-0.2153220957432687	-0.2153220957432702	0.002544878846613128	-0.0003794258079680327	-0.02851615049226419	-0.02629176468182905	-0.3433300328540044	0.007412891087901794	0.05471046429966949	-0.4705748329756672	-0.02935453259923741	-0.01271775754835969	0.3649980332750514	-0.03968480573204395	-62.16182469143306	-18.17106778109471	5.333423247845842	8.709060673415038	-772.1317720632932	79.5120868055273	1.251510330460581	0.1695700303794022	1.819203202214833	-5.449771384009557	-0.1406121187512495	-1.730213580818703	0.3113604188806292	-5.074500227270845	-5.074500227270967	0.02277575898944499	-0.007026732957263861	-1.119445397163579	-0.7345296050174562	-5.853496624326095e-09	-4.99738452296559e-09	-4.049552180528396e-09	-3.503717789547711e-08	7.686042598908542e-09	-1.91445586876176e-08	-4.930123957658374e-08
1.05	-0.2396468871639633	-0.009645009439606165	0.6340458224883562	1.43309298982502	-0.2526310688412039	0.1258037512379602	-0.7852871956485553	1.528989638511916	1.528989638511921	0.05908671254454549	0.1745033696517303	0.4356375462858209	0.1431912918982331	0.1376646254766391	0.01384704887466861	0.1056295868963595	-0.376131055394334	-0.009300715273397332	-0.09099031422539118	0.008492222167451427	-0.2659794317695434	-0.2659794317695452	0.002640374000521994	-0.0005668606041099382	-0.03968580064219212	-0.03347081053950015	-0.3435176672226988	0.007507620494077302	0.05465080178979417	-0.4697964929919147	-0.0297514724643345	-0.0126231184050567	0.3655855629330362	-0.03971667550005877	-62.2735983427898	-18.12743739117355	5.301224457127045	8.595406688406332	-772.2453569759856	79.43279607499302	1.206698285727241	0.1789863181309705	1.804456492531237	-5.38967212556449	-0.1273108144258399	-1.725671624176268	0.4403468158687289	-5.058997492206418	-5.058997492206032	0.002518791559992026	-0.02644200722460257	-1.114932355250177	-0.7049570377216392	-7.406590142601777e-09	-5.676111342037861e-09	-4.433608029154657e-09	-4.453691903421119e-08	8.547623462316266e-09	-2.221275303989759e-08	-5.930087978358135e-08
